<svg width="40" height="41" viewBox="0 0 40 41" fill="none" xmlns="http://www.w3.org/2000/svg">
<path fill-rule="evenodd" clip-rule="evenodd" d="M3.33337 20.7995C3.33337 11.5947 10.7953 4.13281 20 4.13281C29.2048 4.13281 36.6667 11.5947 36.6667 20.7995C36.6667 30.0042 29.2048 37.4661 20 37.4661C10.7953 37.4661 3.33337 30.0042 3.33337 20.7995ZM26.1786 16.2876C26.8294 16.9385 26.8294 17.9938 26.1786 18.6447L20.0406 24.7826C19.0977 25.7255 17.569 25.7255 16.6262 24.7826L13.8215 21.978C13.1707 21.3271 13.1707 20.2718 13.8215 19.621C14.4724 18.9701 15.5277 18.9701 16.1786 19.621L18.3334 21.7758L23.8215 16.2876C24.4724 15.6368 25.5277 15.6368 26.1786 16.2876Z" fill="#5F358B"/>
</svg>
