<svg width="83" height="83" viewBox="0 0 83 83" fill="none" xmlns="http://www.w3.org/2000/svg">
<path d="M62.361 13.833C63.8778 13.833 65.1869 13.8333 66.2702 13.9072C67.4107 13.9851 68.5514 14.1563 69.6784 14.623C72.2205 15.676 74.2406 17.6961 75.2936 20.2383C75.7604 21.3653 75.9316 22.506 76.0094 23.6465C76.0833 24.7297 76.0837 26.0388 76.0836 27.5557V55.4443C76.0837 56.9612 76.0833 58.2703 76.0094 59.3535C75.9316 60.494 75.7604 61.6347 75.2936 62.7617C74.2406 65.3039 72.2205 67.324 69.6784 68.377C68.5514 68.8437 67.4107 69.0149 66.2702 69.0928C65.1869 69.1667 63.8778 69.167 62.361 69.167H20.6393C19.1224 69.167 17.8135 69.1667 16.7301 69.0928C15.5895 69.0149 14.4481 68.8438 13.321 68.377C10.7789 67.3239 8.75965 65.3038 7.7067 62.7617C7.23989 61.6347 7.06871 60.494 6.99088 59.3535C6.91696 58.2703 6.91661 56.9612 6.91666 55.4443V27.5557C6.91661 26.0388 6.91697 24.7297 6.99088 23.6465C7.06871 22.506 7.23989 21.3653 7.7067 20.2383C8.75965 17.6962 10.7789 15.6761 13.321 14.623C14.4481 14.1562 15.5895 13.9851 16.7301 13.9072C17.8135 13.8333 19.1224 13.833 20.6393 13.833H62.361ZM19.8112 21.3867C18.3739 20.1291 16.189 20.2747 14.9313 21.7119C13.6736 23.1493 13.8192 25.334 15.2565 26.5918L34.6676 43.5771C38.5792 46.9998 44.4201 46.9996 48.3317 43.5771L67.7438 26.5918C69.1808 25.334 69.3265 23.1492 68.069 21.7119C66.8113 20.2747 64.6265 20.1293 63.1891 21.3867L43.777 38.3721C42.4731 39.5126 40.5261 39.5128 39.2223 38.3721L19.8112 21.3867Z" fill="#5F358B"/>
</svg>
