<svg width="84" height="83" viewBox="0 0 84 83" fill="none" xmlns="http://www.w3.org/2000/svg">
<path fill-rule="evenodd" clip-rule="evenodd" d="M7.73724 15.2243C8.42669 10.132 12.9201 6.91699 17.5906 6.91699H26.4731C30.9388 6.91699 34.9035 9.77458 36.3157 14.0111L39.945 24.8991C41.5049 29.5789 38.7507 34.5962 33.965 35.7926C32.7949 36.0851 32.3912 37.5424 33.2441 38.3953L44.9384 50.0896C45.7913 50.9424 47.2485 50.5388 47.5411 49.3686C48.7375 44.583 53.7548 41.8287 58.4346 43.3887L69.3225 47.018C73.5591 48.4302 76.4167 52.3949 76.4167 56.8606V65.7431C76.4167 70.4135 73.2017 74.907 68.1094 75.5964C65.7352 75.9179 63.3131 76.0837 60.8542 76.0837C31.2494 76.0837 7.25 52.0843 7.25 22.4795C7.25 20.0206 7.4158 17.5985 7.73724 15.2243Z" fill="#D1444A"/>
</svg>
