<svg width="84" height="83" viewBox="0 0 84 83" fill="none" xmlns="http://www.w3.org/2000/svg">
<rect x="0.666748" width="83" height="83" rx="41.5" fill="#DB9917"/>
<path d="M42.9621 65.7099C38.8089 65.6894 34.7283 64.6187 31.1 62.5974L17.9584 66.0557L21.4167 53.1907C19.1865 49.4435 17.9929 45.1705 17.9584 40.8099C17.9721 35.9092 19.4358 31.1221 22.165 27.0516C24.8941 22.9812 28.7668 19.8093 33.2951 17.9355C37.8235 16.0617 42.8051 15.5698 47.6125 16.5218C52.4199 17.4738 56.8381 19.827 60.3106 23.2852C63.7832 26.7433 66.1548 31.1517 67.1267 35.955C68.0987 40.7584 67.6275 45.742 65.7726 50.2782C63.9176 54.8143 60.7619 58.7001 56.7028 61.4462C52.6437 64.1922 47.8627 65.6758 42.9621 65.7099ZM42.9621 20.302C39.2956 20.3439 35.7057 21.3567 32.5579 23.2372C29.4101 25.1177 26.8168 27.7987 25.0421 31.0073C23.2673 34.2159 22.3745 37.8375 22.4545 41.5034C22.5345 45.1693 23.5845 48.7484 25.4975 51.8766L25.9817 52.672L23.9067 60.2457L31.7917 58.1016L32.5525 58.5512C35.6982 60.404 39.2769 61.3941 42.9275 61.4216C48.4308 61.4216 53.7086 59.2354 57.6 55.344C61.4914 51.4527 63.6775 46.1748 63.6775 40.6716C63.6775 35.1683 61.4914 29.8905 57.6 25.9991C53.7086 22.1077 48.4308 19.9216 42.9275 19.9216L42.9621 20.302ZM55.0663 49.767C54.6133 50.5225 54.0068 51.1745 53.286 51.6809C52.5652 52.1873 51.7461 52.5367 50.8817 52.7066C49.5902 52.9426 48.2605 52.8595 47.0084 52.4645C45.8303 52.0962 44.6754 51.6573 43.55 51.1503C39.2746 49.005 35.6285 45.7878 32.9675 41.8128C31.5216 39.9712 30.6442 37.7477 30.443 35.4149C30.4224 34.4458 30.6057 33.4833 30.981 32.5896C31.3564 31.6959 31.9153 30.8911 32.6217 30.2274C32.8298 29.9915 33.085 29.8019 33.371 29.6708C33.6569 29.5398 33.9672 29.4702 34.2817 29.4666H35.25C35.6305 29.4666 36.1492 29.4666 36.6334 30.5387C37.1175 31.6107 38.3971 34.827 38.57 35.1382C38.655 35.3041 38.6993 35.4879 38.6993 35.6743C38.6993 35.8607 38.655 36.0444 38.57 36.2103C38.4172 36.5861 38.2072 36.9361 37.9475 37.2478C37.6363 37.6282 37.2905 38.0778 37.0138 38.3545C36.7371 38.6312 36.3913 38.977 36.7371 39.5995C37.6781 41.1875 38.8428 42.6318 40.1955 43.8878C41.6684 45.1894 43.3526 46.2303 45.1755 46.9657C45.798 47.277 46.1784 47.2424 46.5242 46.9657C46.87 46.6891 48.0805 45.1674 48.4955 44.5449C48.9105 43.9224 49.3255 44.0262 49.8788 44.2337C50.4321 44.4412 53.51 45.9282 54.1325 46.2395C54.755 46.5507 55.1355 46.6891 55.3084 46.9657C55.4584 47.8709 55.375 48.7993 55.0663 49.6632V49.767Z" fill="#F7F0FF"/>
</svg>
